HIERARCHY
ROOT Hips
{
	OFFSET 0.000000 100.481300 0.000000
	CHANNELS 6 Xposition Yposition Zposition Xrotation Yrotation Zrotation
	JOINT Spine
	{
		OFFSET -0.279200 12.230698 -2.892100
		CHANNELS 3 Xrotation Yrotation Zrotation
		JOINT Spine1
		{
			OFFSET -0.325700 14.269203 -3.374200
			CHANNELS 3 Xrotation Yrotation Zrotation
			JOINT Spine2
			{
				OFFSET -0.372300 16.307602 -0.352600
				CHANNELS 3 Xrotation Yrotation Zrotation
				JOINT Neck
				{
					OFFSET -0.418800 17.814194 8.416900
					CHANNELS 3 Xrotation Yrotation Zrotation
					JOINT Head
					{
						OFFSET 0.000000 7.031097 3.806800
						CHANNELS 3 Xrotation Yrotation Zrotation
						JOINT HeadTop_End
						{
							OFFSET 0.000000 24.646606 12.978600
							CHANNELS 3 Xrotation Yrotation Zrotation
							End Site
							{
								OFFSET 0.000000 27.854965 0.000000
							}
						}
					}
				}
				JOINT LeftShoulder
				{
					OFFSET 16.952999 14.495407 -7.737500
					CHANNELS 3 Xrotation Yrotation Zrotation
					JOINT LeftArm
					{
						OFFSET 9.308998 -2.777710 0.208600
						CHANNELS 3 Xrotation Yrotation Zrotation
						JOINT LeftForeArm
						{
							OFFSET 29.972298 0.000000 0.000000
							CHANNELS 3 Xrotation Yrotation Zrotation
							JOINT LeftHand
							{
								OFFSET 26.026505 0.000000 0.000000
								CHANNELS 3 Xrotation Yrotation Zrotation
								JOINT LeftHandThumb1
								{
									OFFSET 12.240501 -7.147949 9.207150
									CHANNELS 3 Xrotation Yrotation Zrotation
									JOINT LeftHandThumb2
									{
										OFFSET 4.138618 -2.389435 2.389433
										CHANNELS 3 Xrotation Yrotation Zrotation
										JOINT LeftHandThumb3
										{
											OFFSET 2.726913 -1.574387 1.574386
											CHANNELS 3 Xrotation Yrotation Zrotation
											JOINT LeftHandThumb4
											{
												OFFSET 3.941010 -2.275345 2.275342
												CHANNELS 3 Xrotation Yrotation Zrotation
												End Site
												{
													OFFSET -0.005798 5.087799 0.009903
												}
											}
										}
									}
								}
								JOINT LeftHandIndex1
								{
									OFFSET 24.424698 -1.985611 5.953459
									CHANNELS 3 Xrotation Yrotation Zrotation
									JOINT LeftHandIndex2
									{
										OFFSET 6.426697 0.000000 0.000000
										CHANNELS 3 Xrotation Yrotation Zrotation
										JOINT LeftHandIndex3
										{
											OFFSET 5.337898 0.000000 0.000000
											CHANNELS 3 Xrotation Yrotation Zrotation
											JOINT LeftHandIndex4
											{
												OFFSET 4.409401 0.000000 0.000000
												CHANNELS 3 Xrotation Yrotation Zrotation
												End Site
												{
													OFFSET 0.000000 4.409363 0.014373
												}
											}
										}
									}
								}
								JOINT LeftHandMiddle1
								{
									OFFSET 23.810104 0.000000 0.000000
									CHANNELS 3 Xrotation Yrotation Zrotation
									JOINT LeftHandMiddle2
									{
										OFFSET 7.176498 0.000000 0.000000
										CHANNELS 3 Xrotation Yrotation Zrotation
										JOINT LeftHandMiddle3
										{
											OFFSET 6.774902 0.000000 0.000000
											CHANNELS 3 Xrotation Yrotation Zrotation
											JOINT LeftHandMiddle4
											{
												OFFSET 5.403328 0.000000 0.000000
												CHANNELS 3 Xrotation Yrotation Zrotation
												End Site
												{
													OFFSET -0.027702 5.403244 0.017414
												}
											}
										}
									}
								}
								JOINT LeftHandRing1
								{
									OFFSET 22.908401 -0.839279 -6.020567
									CHANNELS 3 Xrotation Yrotation Zrotation
									JOINT LeftHandRing2
									{
										OFFSET 6.337502 0.000000 0.000000
										CHANNELS 3 Xrotation Yrotation Zrotation
										JOINT LeftHandRing3
										{
											OFFSET 5.779297 0.000000 0.000000
											CHANNELS 3 Xrotation Yrotation Zrotation
											JOINT LeftHandRing4
											{
												OFFSET 4.965698 0.000000 0.000000
												CHANNELS 3 Xrotation Yrotation Zrotation
												End Site
												{
													OFFSET 0.000000 4.965668 0.016186
												}
											}
										}
									}
								}
								JOINT LeftHandPinky1
								{
									OFFSET 20.037003 -1.530319 -10.950146
									CHANNELS 3 Xrotation Yrotation Zrotation
									JOINT LeftHandPinky2
									{
										OFFSET 5.254700 0.000000 0.000000
										CHANNELS 3 Xrotation Yrotation Zrotation
										JOINT LeftHandPinky3
										{
											OFFSET 4.810204 0.000000 0.000000
											CHANNELS 3 Xrotation Yrotation Zrotation
											JOINT LeftHandPinky4
											{
												OFFSET 3.647202 0.000000 0.000000
												CHANNELS 3 Xrotation Yrotation Zrotation
												End Site
												{
													OFFSET 0.000000 3.647186 0.011889
												}
											}
										}
									}
								}
							}
						}
					}
				}
				JOINT RightShoulder
				{
					OFFSET -15.141001 14.495407 -7.737500
					CHANNELS 3 Xrotation Yrotation Zrotation
					JOINT RightArm
					{
						OFFSET -9.308998 -2.777710 0.208500
						CHANNELS 3 Xrotation Yrotation Zrotation
						JOINT RightForeArm
						{
							OFFSET -29.972300 0.000000 0.000000
							CHANNELS 3 Xrotation Yrotation Zrotation
							JOINT RightHand
							{
								OFFSET -26.026505 0.000000 0.000000
								CHANNELS 3 Xrotation Yrotation Zrotation
								JOINT RightHandThumb1
								{
									OFFSET -12.240601 -7.148026 9.207092
									CHANNELS 3 Xrotation Yrotation Zrotation
									JOINT RightHandThumb2
									{
										OFFSET -4.138618 -2.389435 2.389433
										CHANNELS 3 Xrotation Yrotation Zrotation
										JOINT RightHandThumb3
										{
											OFFSET -2.726974 -1.574417 1.574421
											CHANNELS 3 Xrotation Yrotation Zrotation
											JOINT RightHandThumb4
											{
												OFFSET -3.941010 -2.275345 2.275343
												CHANNELS 3 Xrotation Yrotation Zrotation
												End Site
												{
													OFFSET 0.005814 5.087799 0.009927
												}
											}
										}
									}
								}
								JOINT RightHandIndex1
								{
									OFFSET -24.424698 -1.985657 5.953444
									CHANNELS 3 Xrotation Yrotation Zrotation
									JOINT RightHandIndex2
									{
										OFFSET -6.426697 0.000000 0.000000
										CHANNELS 3 Xrotation Yrotation Zrotation
										JOINT RightHandIndex3
										{
											OFFSET -5.337898 0.000000 0.000000
											CHANNELS 3 Xrotation Yrotation Zrotation
											JOINT RightHandIndex4
											{
												OFFSET -4.409401 0.000000 0.000000
												CHANNELS 3 Xrotation Yrotation Zrotation
												End Site
												{
													OFFSET 0.000000 4.409363 0.014408
												}
											}
										}
									}
								}
								JOINT RightHandMiddle1
								{
									OFFSET -23.810097 0.000000 0.000000
									CHANNELS 3 Xrotation Yrotation Zrotation
									JOINT RightHandMiddle2
									{
										OFFSET -7.176498 0.000000 0.000000
										CHANNELS 3 Xrotation Yrotation Zrotation
										JOINT RightHandMiddle3
										{
											OFFSET -6.774902 0.000000 0.000000
											CHANNELS 3 Xrotation Yrotation Zrotation
											JOINT RightHandMiddle4
											{
												OFFSET -5.403328 0.000000 0.000000
												CHANNELS 3 Xrotation Yrotation Zrotation
												End Site
												{
													OFFSET 0.027702 5.403244 0.017457
												}
											}
										}
									}
								}
								JOINT RightHandRing1
								{
									OFFSET -22.908302 -0.839325 -6.020576
									CHANNELS 3 Xrotation Yrotation Zrotation
									JOINT RightHandRing2
									{
										OFFSET -6.337502 0.000000 0.000000
										CHANNELS 3 Xrotation Yrotation Zrotation
										JOINT RightHandRing3
										{
											OFFSET -5.779297 0.000000 0.000000
											CHANNELS 3 Xrotation Yrotation Zrotation
											JOINT RightHandRing4
											{
												OFFSET -4.965698 0.000000 0.000000
												CHANNELS 3 Xrotation Yrotation Zrotation
												End Site
												{
													OFFSET 0.000000 4.965668 0.016226
												}
											}
										}
									}
								}
								JOINT RightHandPinky1
								{
									OFFSET -20.037003 -1.530334 -10.950259
									CHANNELS 3 Xrotation Yrotation Zrotation
									JOINT RightHandPinky2
									{
										OFFSET -5.254700 0.000000 0.000000
										CHANNELS 3 Xrotation Yrotation Zrotation
										JOINT RightHandPinky3
										{
											OFFSET -4.810204 0.000000 0.000000
											CHANNELS 3 Xrotation Yrotation Zrotation
											JOINT RightHandPinky4
											{
												OFFSET -3.647202 0.000000 0.000000
												CHANNELS 3 Xrotation Yrotation Zrotation
												End Site
												{
													OFFSET 0.000000 3.647186 0.011917
												}
											}
										}
									}
								}
							}
						}
					}
				}
			}
		}
	}
	JOINT LeftUpLeg
	{
		OFFSET 15.427100 -6.655098 0.678600
		CHANNELS 3 Xrotation Yrotation Zrotation
		JOINT LeftLeg
		{
			OFFSET 4.081073 -39.591068 13.024000
			CHANNELS 3 Xrotation Yrotation Zrotation
			JOINT LeftFoot
			{
				OFFSET -4.081074 -37.707932 -15.979700
				CHANNELS 3 Xrotation Yrotation Zrotation
				JOINT LeftToeBase
				{
					OFFSET 5.346399 -15.068900 20.645000
					CHANNELS 3 Xrotation Yrotation Zrotation
					JOINT LeftToe_End
					{
						OFFSET 2.754700 0.931300 11.300900
						CHANNELS 3 Xrotation Yrotation Zrotation
						End Site
						{
							OFFSET 0.000000 11.669021 0.000000
						}
					}
				}
			}
		}
	}
	JOINT RightUpLeg
	{
		OFFSET -15.569500 -6.655098 0.678600
		CHANNELS 3 Xrotation Yrotation Zrotation
		JOINT RightLeg
		{
			OFFSET -4.081825 -39.591045 13.023800
			CHANNELS 3 Xrotation Yrotation Zrotation
			JOINT RightFoot
			{
				OFFSET 4.081824 -37.707954 -15.979600
				CHANNELS 3 Xrotation Yrotation Zrotation
				JOINT RightToeBase
				{
					OFFSET -5.346400 -15.068900 20.645000
					CHANNELS 3 Xrotation Yrotation Zrotation
					JOINT RightToe_End
					{
						OFFSET -2.754700 0.931300 11.300900
						CHANNELS 3 Xrotation Yrotation Zrotation
						End Site
						{
							OFFSET 0.000000 11.669021 0.000000
						}
					}
				}
			}
		}
	}
}
MOTION
Frames: 5
Frame Time: 0.033333
2.135764 64.713203 -0.880812 16.576803 -15.712942 -2.735889 11.288882 17.225848 -10.276984 2.869499 4.087944 -0.126403 2.861628 4.312288 -0.311449 -0.688859 -2.356463 4.369680 -6.951142 -9.322003 11.106345 -0.000002 0.000000 0.000000 1.124707 -1.331171 -15.116520 -9.590819 31.513212 -40.008400 -0.000002 -10.721297 -0.000015 15.668208 -19.583486 20.990305 -5.456658 -6.701462 3.223898 8.086131 27.604266 1.097668 -10.020030 -14.017831 7.739297 -0.000000 -0.000000 -0.000000 -1.866064 -6.065142 -12.588959 0.237186 1.651687 -16.342785 0.250134 1.695194 -16.786214 -0.000000 0.000001 0.000000 -1.264333 -0.680469 -18.650040 0.387938 2.098232 -20.947900 0.466482 2.292743 -22.997851 -0.000002 0.000003 -0.000002 0.028220 3.645199 -26.113044 0.502168 2.375016 -23.874312 0.587686 2.559335 -25.860532 -0.000000 -0.000001 0.000001 0.222714 4.359351 -33.120578 0.780415 2.923324 -29.888665 0.780024 2.922624 -29.880876 -0.000000 0.000000 -0.000001 2.876121 11.956998 -6.152689 -33.803689 70.877556 6.927843 0.000021 94.704705 -0.000014 17.111787 20.467034 -11.105443 -15.299427 26.937083 3.983093 9.868398 -45.620654 -5.471936 -7.051924 3.101788 -14.196848 -0.000000 -0.000001 0.000001 0.533387 -4.797631 13.845893 0.169904 -1.247741 15.507868 0.169797 -1.247374 15.503221 -0.000001 0.000001 0.000003 1.576769 -6.016262 32.822283 0.816457 -2.636015 34.413625 0.910233 -2.767795 36.402825 -0.000000 -0.000001 0.000000 2.347862 -6.542683 43.827405 1.218016 -3.142190 42.367872 1.329183 -3.259705 44.358455 -0.000004 -0.000001 0.000001 3.146672 -6.893232 54.105552 1.765800 -3.652472 51.591455 1.765234 -3.652016 51.582668 0.000003 -0.000003 0.000002 -88.379847 -2.002546 2.762056 44.380517 11.634331 0.221739 21.290876 26.697768 10.757994 -4.481405 0.000010 0.000003 0.000000 -0.000001 0.000000 26.062100 -5.828082 4.491911 33.950951 -6.465222 11.586962 -38.378307 -19.890013 14.061532 -42.282406 -0.000001 -0.000004 -0.000000 -0.000001 0.000001 
0.930820 64.913971 0.391516 17.846080 -13.314890 -2.757774 10.801356 16.432195 -9.768769 3.290394 3.874281 -0.819214 3.198841 4.243763 -0.197858 -1.132515 -2.473709 4.268119 -6.826802 -10.145063 12.235869 0.000001 0.000000 0.000000 0.928952 -2.344210 -15.752641 -10.440275 29.795116 -39.955924 0.000002 -11.581670 -0.000016 15.163274 -20.262992 21.709669 -5.479761 -6.676680 3.282597 7.989627 26.902508 1.114533 -9.869418 -13.382928 8.005724 0.000001 -0.000000 0.000001 -1.725216 -5.707589 -12.180301 0.215594 1.576223 -15.576299 0.227355 1.617813 -15.998378 -0.000000 -0.000001 -0.000001 -1.159421 -0.562117 -17.923437 0.352740 2.003931 -19.964469 0.424232 2.190640 -21.917981 -0.000001 0.000002 -0.000002 0.030902 3.589376 -25.034774 0.456740 2.269686 -22.753220 0.534633 2.446980 -24.645966 -0.000001 -0.000003 -0.000001 0.207399 4.270726 -31.712903 0.710331 2.798008 -28.484426 0.709965 2.797328 -28.476971 0.000002 0.000003 -0.000003 2.862239 12.040316 -6.110802 -34.728578 67.141688 8.039061 -0.000169 94.704644 0.000147 15.429700 20.537083 -10.482378 -15.436554 25.931611 3.566003 9.750207 -44.559963 -5.334911 -6.801253 1.719352 -14.435636 0.000003 0.000000 0.000001 0.245439 -3.658469 12.885481 0.148536 -1.168021 14.494203 0.148935 -1.169550 14.513735 -0.000001 0.000001 0.000000 1.199508 -5.476314 31.291091 0.717913 -2.486199 32.208539 0.801588 -2.614204 34.089023 -0.000002 0.000000 -0.000000 2.145914 -6.386051 42.161221 1.112173 -3.022242 40.399558 1.212097 -3.135701 42.259719 -0.000000 0.000002 -0.000002 3.701631 -7.424524 52.192672 1.604941 -3.519218 49.019943 1.605334 -3.519551 49.026538 0.000002 -0.000000 0.000001 -89.415106 -1.173370 1.294207 45.048851 10.240040 0.402583 20.482189 26.491852 10.619498 -4.481406 0.000000 0.000008 0.000000 -0.000001 -0.000000 24.387269 -5.946136 4.861905 35.664287 -5.458438 12.017081 -29.249728 -21.939466 20.434041 -45.739755 -0.000010 -0.000004 0.000000 0.000002 -0.000001 
-0.381326 64.708687 1.954956 19.040322 -10.901595 -2.876330 10.344791 15.734446 -9.283614 3.719000 3.660388 -1.540935 3.538506 4.178435 -0.081595 -1.434576 -2.578696 4.425371 -6.829103 -10.440829 12.735259 0.000000 -0.000000 0.000000 0.694622 -3.392358 -16.398734 -11.224044 28.127935 -40.100990 0.000005 -12.425093 -0.000005 14.585043 -20.944780 22.424141 -5.503157 -6.651625 3.342090 7.890946 26.184591 1.129953 -9.718019 -12.732606 8.275502 0.000000 -0.000001 0.000001 -1.587857 -5.343928 -11.767316 0.194580 1.498808 -14.792976 0.205162 1.538308 -15.192299 0.000000 -0.000001 -0.000000 -1.056979 -0.440978 -17.180154 0.318411 1.906829 -18.958285 0.383021 2.085353 -20.813205 0.000000 -0.000000 -0.000000 0.033389 3.532234 -23.931415 0.412404 2.161010 -21.606293 0.482841 2.330877 -23.403413 -0.000001 0.000001 -0.000000 0.192330 4.179923 -30.272583 0.641827 2.668036 -27.047833 0.641496 2.667393 -27.040768 0.000002 0.000001 -0.000000 2.824455 12.261018 -5.998305 -35.644862 63.384606 8.900609 -0.000140 94.704650 0.000173 13.911340 20.672030 -9.867042 -15.295386 25.265507 2.810147 9.634602 -43.503500 -5.185133 -6.536580 0.264453 -14.675826 0.000000 0.000000 0.000003 -0.022451 -2.421203 11.925134 0.126470 -1.079080 13.368889 0.127975 -1.085395 13.448664 0.000000 0.000002 0.000001 0.809063 -4.850836 29.561236 0.617626 -2.319525 29.817068 0.692437 -2.445349 31.616567 -0.000000 -0.000000 -0.000001 1.917883 -6.184792 40.425929 1.003513 -2.889865 38.292667 1.091604 -2.997931 40.007789 0.000000 0.000001 -0.000001 4.179959 -8.040653 50.089459 1.441665 -3.370719 46.303434 1.444422 -3.373340 46.350255 0.000001 -0.000001 0.000001 -90.910316 -0.221001 -0.143241 46.684381 8.652029 0.626456 19.315705 26.362785 10.428182 -4.481414 -0.000002 -0.000002 0.000001 -0.000002 -0.000000 23.272307 -5.903666 5.433541 36.865068 -5.078231 12.078476 -18.464624 -22.938383 27.814714 -48.254016 -0.000004 0.000002 -0.000000 0.000002 -0.000001 
-1.921602 64.388580 3.904491 20.180417 -8.807559 -3.156862 9.911118 15.045688 -8.810081 4.138887 3.446470 -2.252099 3.877048 4.112185 0.033584 -1.667495 -2.688781 4.936952 -6.927997 -10.163435 12.593376 0.000000 0.000000 0.000000 0.444148 -4.420821 -17.045162 -12.006460 26.447648 -40.256817 -0.000008 -13.279008 0.000013 14.067585 -21.656479 23.120805 -5.526816 -6.626307 3.402246 7.790227 25.451865 1.143913 -9.566248 -12.068068 8.548047 -0.000002 -0.000000 0.000000 -1.454311 -4.974533 -11.350512 0.174237 1.419578 -13.994276 0.183656 1.456840 -14.369478 -0.000000 0.000001 -0.000000 -0.957358 -0.317074 -16.421687 0.285128 1.807093 -17.931273 0.343056 1.977071 -19.685549 -0.000000 0.000001 0.000001 0.035712 3.473911 -22.805095 0.369398 2.049183 -20.435583 0.432579 2.211231 -22.135147 -0.000002 0.000000 0.000000 0.177649 4.087158 -28.802375 0.575293 2.533637 -25.581642 0.574999 2.533015 -25.574972 -0.000000 0.000001 -0.000002 2.759643 12.621970 -5.811091 -36.913587 59.747817 9.878311 -0.000169 94.704685 0.000163 12.707943 20.905478 -9.389809 -14.851620 24.946334 1.711786 9.521425 -42.450910 -5.023751 -6.260232 -1.256125 -14.915397 -0.000001 -0.000000 0.000002 -0.252169 -1.093292 10.978925 0.104429 -0.981746 12.143329 0.107399 -0.995423 12.315424 0.000001 -0.000002 -0.000002 0.420991 -4.140091 27.643860 0.518102 -2.136655 27.257502 0.585019 -2.261733 29.001127 0.000000 0.000001 0.000001 1.671135 -5.939506 38.632339 0.893780 -2.745363 36.060745 0.969739 -2.846631 37.617738 0.000000 -0.000001 -0.000000 4.568939 -8.734879 47.799716 1.278425 -3.207068 43.458557 1.284759 -3.213724 43.571730 -0.000001 0.000001 0.000002 -92.569404 0.564951 -1.123011 49.217226 6.921345 0.891104 17.669172 26.304199 9.947311 -4.481407 -0.000003 0.000006 -0.000000 0.000001 -0.000000 21.587112 -6.327645 5.930775 38.235488 -4.883993 11.505804 -5.374246 -20.719177 33.795797 -53.475241 -0.359770 5.727813 0.000000 0.000002 -0.000000 
-3.653238 64.254333 6.197517 21.327062 -7.140845 -3.582647 9.492517 14.276041 -8.351043 4.526347 3.230629 -2.894768 4.212200 4.037318 0.142977 -1.925971 -2.816739 5.716474 -7.040109 -9.531634 12.098526 0.000001 0.000000 0.000000 0.213033 -5.352447 -17.643622 -12.884263 24.677516 -40.188765 0.000001 -14.165022 0.000005 13.790656 -22.405963 23.803242 -5.550652 -6.600831 3.462968 7.688019 24.708974 1.156490 -9.415156 -11.393620 8.821749 0.000000 -0.000002 -0.000001 -1.325231 -4.600763 -10.931308 0.154765 1.339049 -13.185298 0.163051 1.373916 -13.535213 0.000000 -0.000000 -0.000000 -0.861238 -0.190616 -15.652681 0.253213 1.705368 -16.889977 0.304710 1.866495 -18.542234 -0.000002 -0.000002 0.000000 0.037940 3.414977 -21.662995 0.328141 1.934906 -19.248641 0.384339 2.088801 -20.849349 0.000001 -0.000001 -0.000000 0.163576 3.993180 -27.311632 0.511369 2.395661 -24.095205 0.511102 2.395068 -24.088904 0.000001 -0.000000 0.000001 2.668216 13.100129 -5.557561 -38.653284 56.362161 11.121264 -0.000147 94.704644 0.000176 11.970888 21.282229 -9.141514 -14.126180 24.916510 0.319249 9.409281 -41.400877 -4.854581 -5.979796 -2.820895 -15.150987 -0.000001 -0.000001 0.000001 -0.429474 0.296673 10.063205 0.083469 -0.878705 10.852287 0.087892 -0.901476 11.137101 -0.000001 0.000000 -0.000002 0.057757 -3.360565 25.590115 0.423073 -1.941274 24.587002 0.482674 -2.066489 26.291370 0.000000 0.000001 0.000002 1.419223 -5.659550 36.806237 0.786028 -2.591083 33.746377 0.850010 -2.684291 35.136648 -0.000003 0.000000 0.000000 4.864672 -9.489190 45.364484 1.119208 -3.030473 40.532743 1.129918 -3.042930 40.735002 0.000001 0.000000 -0.000000 -94.014371 1.016325 -1.544312 52.128099 5.135703 1.187392 15.597466 26.310640 9.150039 -4.481423 -0.000019 -0.000006 -0.000000 0.000001 -0.000000 18.292939 -8.118632 5.590372 39.021052 -5.256579 10.830296 10.250613 -11.156668 33.081086 -59.257840 -4.831230 16.364548 -0.000000 -0.000002 0.000000 
